<?xml version="1.0" encoding="UTF-8"?>
<svg width="24" height="24" version="1.1" viewBox="0 0 6.35 6.35" xmlns="http://www.w3.org/2000/svg">
 <g transform="translate(0 -290.65)">
  <g transform="matrix(.22978 0 0 -.22984 .23467 293.85)">
   <path d="m0 0c0 7.043 5.71 12.754 12.756 12.754 7.043 0 12.756-5.711 12.756-12.754s-5.713-12.753-12.756-12.753c-7.046 0-12.756 5.71-12.756 12.753z" fill="none" stroke="#3ea9b3" stroke-miterlimit="10" stroke-width="1.8"/>
  </g>
  <g transform="matrix(.23295 0 0 -.23229 1.5493 295.27)">
   <path d="m0 0c0.083-0.215 0.331-0.197 0.52-0.189 0.744 0.038 1.489 9e-3 2.233 0.012 3.58 5e-3 7.162 0.01 10.74 0.018 0.171 0 0.368-0.016 0.527 0.053 0.217 0.09 0.207 0.313 0.162 0.509-0.177 0.709-0.369 1.416-0.533 2.127-0.182 0.77-0.34 1.542-0.509 2.315-0.107 0.487-0.223 0.976-0.316 1.466-0.061 0.328-0.212 0.53-0.563 0.547-0.058 2e-3 -0.136-0.012-0.169 0.018-0.081 0.076-0.202 0.18-0.192 0.26 0.016 0.111 0.109 0.27 0.207 0.302 0.583 0.206 1.179-0.191 1.31-0.809 0.237-1.131 0.492-2.256 0.747-3.384 0.169-0.75 0.391-1.492 0.504-2.249 0.061-0.391 0.192-0.83-9e-3 -1.201-0.164-0.308-0.475-0.534-0.826-0.558-0.118-7e-3 -0.234-2e-3 -0.351-2e-3h-7.688c-1.84 0-3.677 0.018-5.514-7e-3 -0.57-8e-3 -1.057 0.544-0.934 1.127 0.359 1.656 0.695 3.314 1.045 4.966 0.098 0.47 0.219 0.94 0.341 1.404 0.113 0.454 0.449 0.729 0.926 0.731 1.35 8e-3 2.7 6e-3 4.05 3e-3 0.076 0 0.177 0.015 0.227-0.025 0.083-0.069 0.171-0.167 0.192-0.268 0.03-0.148-0.073-0.265-0.222-0.295-0.132-0.025-0.273-0.013-0.409-0.013-1.095-3e-3 -2.19 0-3.286-3e-3 -0.136 0-0.28 0.024-0.411-4e-3 -0.252-0.056-0.429-0.157-0.494-0.477-0.331-1.623-0.692-3.237-1.053-4.853-0.063-0.275-0.128-0.549-0.194-0.823-0.045-0.196-0.131-0.484-0.058-0.698" fill="#474b49" fill-rule="evenodd"/>
  </g>
  <g transform="matrix(.23295 0 0 -.23229 1.5493 295.27)">
   <path d="m0 0c0.083-0.215 0.331-0.197 0.52-0.189 0.744 0.038 1.489 9e-3 2.233 0.012 3.58 5e-3 7.162 0.01 10.74 0.018 0.171 0 0.368-0.016 0.527 0.053 0.217 0.09 0.207 0.313 0.162 0.509-0.177 0.709-0.369 1.416-0.533 2.127-0.182 0.77-0.34 1.542-0.509 2.315-0.107 0.487-0.223 0.976-0.316 1.466-0.061 0.328-0.212 0.53-0.563 0.547-0.058 2e-3 -0.136-0.012-0.169 0.018-0.081 0.076-0.202 0.18-0.192 0.26 0.016 0.111 0.109 0.27 0.207 0.302 0.583 0.206 1.179-0.191 1.31-0.809 0.237-1.131 0.492-2.256 0.747-3.384 0.169-0.75 0.391-1.492 0.504-2.249 0.061-0.391 0.192-0.83-9e-3 -1.201-0.164-0.308-0.475-0.534-0.826-0.558-0.118-7e-3 -0.234-2e-3 -0.351-2e-3h-7.688c-1.84 0-3.677 0.018-5.514-7e-3 -0.57-8e-3 -1.057 0.544-0.934 1.127 0.359 1.656 0.695 3.314 1.045 4.966 0.098 0.47 0.219 0.94 0.341 1.404 0.113 0.454 0.449 0.729 0.926 0.731 1.35 8e-3 2.7 6e-3 4.05 3e-3 0.076 0 0.177 0.015 0.227-0.025 0.083-0.069 0.171-0.167 0.192-0.268 0.03-0.148-0.073-0.265-0.222-0.295-0.132-0.025-0.273-0.013-0.409-0.013-1.095-3e-3 -2.19 0-3.286-3e-3 -0.136 0-0.28 0.024-0.411-4e-3 -0.252-0.056-0.429-0.157-0.494-0.477-0.331-1.623-0.692-3.237-1.053-4.853-0.063-0.275-0.128-0.549-0.194-0.823-0.045-0.196-0.131-0.484-0.058-0.698z" fill="none" stroke="#474b49" stroke-miterlimit="10" stroke-width=".25"/>
  </g>
  <g transform="matrix(.23295 0 0 -.23229 3.6802 294.08)">
   <path d="m0 0c0.139 0.159 0.26 0.282 0.366 0.421 0.752 1.013 1.473 2.045 2.256 3.036 1.002 1.274 1.087 2.935 0.373 4.136-0.583 0.974-1.438 1.511-2.526 1.66-0.931 0.129-1.806-0.096-2.566-0.691-0.954-0.752-1.416-1.749-1.363-2.942 0.033-0.78 0.361-1.481 0.853-2.115 0.876-1.136 1.713-2.299 2.607-3.505m-0.083-0.926c-0.354 0.456-0.707 0.896-1.04 1.347-0.717 0.967-1.418 1.943-2.132 2.91-0.551 0.742-0.836 1.555-0.833 2.488 7e-3 1.196 0.452 2.193 1.297 3.01 0.598 0.578 1.335 0.873 2.158 1.048 1.675 0.355 3.535-0.664 4.284-2.107 0.616-1.192 0.694-2.435 0.091-3.687-0.366-0.762-0.926-1.386-1.403-2.064-0.59-0.843-1.226-1.653-1.827-2.489-0.141-0.199-0.29-0.363-0.595-0.456" fill="#474b49" fill-rule="evenodd"/>
  </g>
  <g transform="matrix(.23295 0 0 -.23229 3.6802 294.08)">
   <path d="m0 0c0.139 0.159 0.26 0.282 0.366 0.421 0.752 1.013 1.473 2.045 2.256 3.036 1.002 1.274 1.087 2.935 0.373 4.136-0.583 0.974-1.438 1.511-2.526 1.66-0.931 0.129-1.806-0.096-2.566-0.691-0.954-0.752-1.416-1.749-1.363-2.942 0.033-0.78 0.361-1.481 0.853-2.115 0.876-1.136 1.713-2.299 2.607-3.505zm-0.083-0.926c-0.354 0.456-0.707 0.896-1.04 1.347-0.717 0.967-1.418 1.943-2.132 2.91-0.551 0.742-0.836 1.555-0.833 2.488 7e-3 1.196 0.452 2.193 1.297 3.01 0.598 0.578 1.335 0.873 2.158 1.048 1.675 0.355 3.535-0.664 4.284-2.107 0.616-1.192 0.694-2.435 0.091-3.687-0.366-0.762-0.926-1.386-1.403-2.064-0.59-0.843-1.226-1.653-1.827-2.489-0.141-0.199-0.29-0.363-0.595-0.456z" fill="none" stroke="#474b49" stroke-miterlimit="10" stroke-width=".25"/>
  </g>
  <g transform="matrix(.23295 0 0 -.23229 2.4333 294.79)">
   <path d="m0 0c-0.272 0.321-0.58 0.293-0.885 0.223-0.069-0.016-0.142-0.126-0.167-0.207-0.01-0.048 0.063-0.164 0.114-0.177 0.317-0.081 0.646-0.164 0.938 0.161m0.505 0.366c0.464 0.033 0.639 0.285 0.78 0.611 0.305 0.691 0.862 1.027 1.612 1.032 0.151 3e-3 0.3-0.053 0.449-0.093 0.112-0.03 0.217-0.078 0.321-0.126 0.524-0.253 1.029-0.272 1.564 0.174 0.116-0.129 0.215-0.24 0.28-0.316-0.025-0.121-0.02-0.167-0.04-0.194-0.419-0.532-0.984-0.567-1.582-0.441-0.187 0.04-0.359 0.138-0.543 0.204-0.746 0.258-1.178 0.083-1.499-0.553-0.146-0.293-0.27-0.608-0.608-0.747-0.103-0.043-0.207-0.096-0.31-0.139-0.207-0.086-0.396-0.161-0.571-0.34-0.502-0.515-1.443-0.472-1.884 0.038-0.346 0.396-0.288 0.906 0.138 1.211 0.573 0.409 1.219 0.361 1.746-0.139 0.056-0.053 0.099-0.121 0.147-0.182" fill="#a6773e" fill-rule="evenodd"/>
  </g>
  <g transform="matrix(.23295 0 0 -.23229 2.4333 294.79)">
   <path d="m0 0c-0.292-0.325-0.621-0.242-0.938-0.161-0.051 0.013-0.124 0.129-0.114 0.177 0.025 0.081 0.098 0.191 0.167 0.207 0.305 0.07 0.613 0.098 0.885-0.223" fill="#fff" fill-rule="evenodd"/>
  </g>
  <g transform="matrix(.23295 0 0 -.23229 2.4333 294.79)">
   <path d="m0 0c-0.292-0.325-0.621-0.242-0.938-0.161-0.051 0.013-0.124 0.129-0.114 0.177 0.025 0.081 0.098 0.191 0.167 0.207 0.305 0.07 0.613 0.098 0.885-0.223z" fill="none" stroke="#fff" stroke-miterlimit="10" stroke-width=".16"/>
  </g>
  <g transform="matrix(.23295 0 0 -.23229 3.6802 293.1)">
   <path d="m0 0c0.883-0.144 1.706 0.843 1.681 1.603-0.026 0.873-0.823 1.73-1.661 1.677-1.042-0.065-1.62-0.905-1.645-1.627-0.03-0.904 0.762-1.736 1.625-1.653m2.281 1.569c0.101-1.276-1.201-2.294-2.246-2.26-1.493 0.045-2.304 1.065-2.319 2.314-0.012 1.463 1.242 2.278 2.357 2.283 1.085 0 2.317-1.032 2.208-2.337" fill="#474b49" fill-rule="evenodd"/>
  </g>
  <g transform="matrix(.23295 0 0 -.23229 3.6802 293.1)">
   <path d="m0 0c0.883-0.144 1.706 0.843 1.681 1.603-0.026 0.873-0.823 1.73-1.661 1.677-1.042-0.065-1.62-0.905-1.645-1.627-0.03-0.904 0.762-1.736 1.625-1.653zm2.281 1.569c0.101-1.276-1.201-2.294-2.246-2.26-1.493 0.045-2.304 1.065-2.319 2.314-0.012 1.463 1.242 2.278 2.357 2.283 1.085 0 2.317-1.032 2.208-2.337z" fill="none" stroke="#474b49" stroke-miterlimit="10" stroke-width=".25"/>
  </g>
 </g>
</svg>
